# xmcd CD database file
# Copyright (C) 1995 Ti Kan
#
# Track frame offsets:
#	183
#	13133
#	38995
#	55720
#	69820
#	84858
#	98995
#	117370
#	133833
#	155595
#	166083
#	182033
#	193095
#	212983
#	230820
#	253783
#	267633
#	286208
#	310408
#
# Disc length: 4378 seconds
#
# Revision: 1
# Processed by: cddbd v1.4b41PL1 Copyright (c) Steve Scherf et al.
# Submitted via: xmcd 1.4
#
DISCID=17111813
DTITLE=Muddy Waters  -  Chicago - London
DYEAR=1900
DGENRE=
TTITLE0=All Aboard
TTITLE1=Mean Disposition
TTITLE2=Blow Wind Blow
TTITLE3=Can't Lose What You Ain't Never Had
TTITLE4=Walkin' Thru The Park
TTITLE5=Forty Days and Forty Nights
TTITLE6=Standin' Round Cryin'
TTITLE7=I'm Ready
TTITLE8=Twenty Four Hours
TTITLE9=Sugar Sweet
TTITLE10=Blind Man Blues
TTITLE11=Key To The Highway
TTITLE12=Young Fashioned Ways
TTITLE13=I'm Gonna Move to the Outskirts of Town
TTITLE14=Who's Gonna Be Your Sweet Man When I'm Gone
TTITLE15=Walkin' Blues
TTITLE16=I'm Ready
TTITLE17=Sad Sad Day
TTITLE18=I Don't Know Why
EXTD=
EXTT0=
EXTT1=
EXTT2=
EXTT3=
EXTT4=
EXTT5=
EXTT6=
EXTT7=
EXTT8=
EXTT9=
EXTT10=
EXTT11=
EXTT12=
EXTT13=
EXTT14=
EXTT15=
EXTT16=
EXTT17=
EXTT18=
PLAYORDER=
